<svg xmlns="http://www.w3.org/2000/svg" viewBox="0 0 64 64" width="64" height="64">
  <defs>
    <linearGradient id="moonGradient" x1="0%" y1="0%" x2="100%" y2="100%">
      <stop offset="0%" style="stop-color:#ffd700;stop-opacity:1" />
      <stop offset="50%" style="stop-color:#ffed4e;stop-opacity:1" />
      <stop offset="100%" style="stop-color:#ffa500;stop-opacity:1" />
    </linearGradient>
    <linearGradient id="starGradient" x1="0%" y1="0%" x2="100%" y2="100%">
      <stop offset="0%" style="stop-color:#ffffff;stop-opacity:1" />
      <stop offset="100%" style="stop-color:#e6e6fa;stop-opacity:1" />
    </linearGradient>
    <radialGradient id="glowEffect" cx="50%" cy="50%" r="50%">
      <stop offset="0%" style="stop-color:#ffd700;stop-opacity:0.3" />
      <stop offset="100%" style="stop-color:#ffd700;stop-opacity:0" />
    </radialGradient>
  </defs>
  
  <!-- Background circle with glow -->
  <circle cx="32" cy="32" r="30" fill="url(#glowEffect)" />
  
  <!-- Main crescent moon -->
  <path d="M20 12 C28 8, 40 12, 44 24 C40 36, 28 40, 20 36 C26 32, 26 20, 20 12 Z" 
        fill="url(#moonGradient)" 
        stroke="#ffb347" 
        stroke-width="1"/>
  
  <!-- Moon crater details -->
  <circle cx="26" cy="20" r="2" fill="#ffb347" opacity="0.6"/>
  <circle cx="30" cy="28" r="1.5" fill="#ffb347" opacity="0.4"/>
  <circle cx="24" cy="32" r="1" fill="#ffb347" opacity="0.5"/>
  
  <!-- Stars around the moon -->
  <g fill="url(#starGradient)">
    <!-- Large star -->
    <path d="M48 16 L49.5 19 L53 19 L50.5 21.5 L51.5 25 L48 23 L44.5 25 L45.5 21.5 L43 19 L46.5 19 Z" opacity="0.9"/>
    
    <!-- Medium stars -->
    <path d="M14 22 L15 24 L17 24 L15.5 25.5 L16 27.5 L14 26.5 L12 27.5 L12.5 25.5 L11 24 L13 24 Z" opacity="0.8"/>
    <path d="M52 36 L53 38 L55 38 L53.5 39.5 L54 41.5 L52 40.5 L50 41.5 L50.5 39.5 L49 38 L51 38 Z" opacity="0.7"/>
    
    <!-- Small stars -->
    <circle cx="16" cy="44" r="1" opacity="0.6"/>
    <circle cx="50" cy="50" r="0.8" opacity="0.5"/>
    <circle cx="12" cy="36" r="0.6" opacity="0.7"/>
    <circle cx="54" cy="26" r="0.7" opacity="0.6"/>
  </g>
  
  <!-- Mystical sparkles -->
  <g fill="#ffd700" opacity="0.4">
    <circle cx="38" cy="14" r="0.5">
      <animate attributeName="opacity" values="0.2;0.8;0.2" dur="2s" repeatCount="indefinite"/>
    </circle>
    <circle cx="18" cy="50" r="0.4">
      <animate attributeName="opacity" values="0.3;0.9;0.3" dur="1.5s" repeatCount="indefinite"/>
    </circle>
    <circle cx="56" cy="42" r="0.3">
      <animate attributeName="opacity" values="0.1;0.7;0.1" dur="2.5s" repeatCount="indefinite"/>
    </circle>
  </g>
</svg>